<svg width="4125" height="1696" xmlns="http://www.w3.org/2000/svg" xmlns:xlink="http://www.w3.org/1999/xlink" xml:space="preserve" overflow="hidden"><g transform="translate(-165 -394)"><g><rect x="173.5" y="908.5" width="598" height="129" stroke="#000000" stroke-width="6.875" stroke-linecap="butt" stroke-linejoin="miter" stroke-miterlimit="8" stroke-opacity="1" fill="#FFFFFF" fill-opacity="1"/><text fill="#000000" fill-opacity="1" font-family="Arial,Arial_MSFontService,sans-serif" font-style="normal" font-variant="normal" font-weight="400" font-stretch="normal" font-size="73" text-anchor="start" direction="ltr" writing-mode="lr-tb" unicode-bidi="normal" text-decoration="none" transform="matrix(1 0 0 1 349.832 999)">Auction</text><rect x="173.5" y="1037.5" width="598" height="221" stroke="#000000" stroke-width="6.875" stroke-linecap="butt" stroke-linejoin="miter" stroke-miterlimit="8" stroke-opacity="1" fill="#FFFFFF" fill-opacity="1"/><text fill="#000000" fill-opacity="1" font-family="Arial,Arial_MSFontService,sans-serif" font-style="normal" font-variant="normal" font-weight="400" font-stretch="normal" font-size="73" text-anchor="start" direction="ltr" writing-mode="lr-tb" unicode-bidi="normal" text-decoration="none" transform="matrix(1 0 0 1 212.021 1117)">String title</text><text fill="#000000" fill-opacity="1" font-family="Arial,Arial_MSFontService,sans-serif" font-style="normal" font-variant="normal" font-weight="400" font-stretch="normal" font-size="73" text-anchor="start" direction="ltr" writing-mode="lr-tb" unicode-bidi="normal" text-decoration="none" transform="matrix(1 0 0 1 212.021 1213)">/int bidders</text><rect x="173.5" y="1721.5" width="598" height="130" stroke="#000000" stroke-width="6.875" stroke-linecap="butt" stroke-linejoin="miter" stroke-miterlimit="8" stroke-opacity="1" fill="#FFFFFF" fill-opacity="1"/><text fill="#000000" fill-opacity="1" font-family="Arial,Arial_MSFontService,sans-serif" font-style="normal" font-variant="normal" font-weight="400" font-stretch="normal" font-size="73" text-anchor="start" direction="ltr" writing-mode="lr-tb" unicode-bidi="normal" text-decoration="none" transform="matrix(1 0 0 1 355.847 1813)">Person</text><rect x="173.5" y="1850.5" width="598" height="221" stroke="#000000" stroke-width="6.875" stroke-linecap="butt" stroke-linejoin="miter" stroke-miterlimit="8" stroke-opacity="1" fill="#FFFFFF" fill-opacity="1"/><text fill="#000000" fill-opacity="1" font-family="Arial,Arial_MSFontService,sans-serif" font-style="normal" font-variant="normal" font-weight="400" font-stretch="normal" font-size="73" text-anchor="start" direction="ltr" writing-mode="lr-tb" unicode-bidi="normal" text-decoration="none" transform="matrix(1 0 0 1 212.021 1930)">String name</text><text fill="#000000" fill-opacity="1" font-family="Arial,Arial_MSFontService,sans-serif" font-style="normal" font-variant="normal" font-weight="400" font-stretch="normal" font-size="73" text-anchor="start" direction="ltr" writing-mode="lr-tb" unicode-bidi="normal" text-decoration="none" transform="matrix(1 0 0 1 212.021 2026)">Integer number</text><path d="M0 0 715 0 715 91.628 676.628 130 0 130Z" fill="#FFFFFF" fill-rule="evenodd" fill-opacity="1" transform="matrix(1 0 0 -1 175.5 528.5)"/><path d="M676.628 130 684.302 99.3019 715 91.628Z" fill="#CDCDCD" fill-rule="evenodd" fill-opacity="1" transform="matrix(1 0 0 -1 175.5 528.5)"/><path d="M676.628 130 684.302 99.3019 715 91.628 676.628 130 0 130 0 0 715 0 715 91.628" stroke="#000000" stroke-width="6.875" stroke-linecap="butt" stroke-linejoin="round" stroke-miterlimit="10" stroke-opacity="1" fill="none" fill-rule="evenodd" transform="matrix(1 0 0 -1 175.5 528.5)"/><text fill="#000000" fill-opacity="1" font-family="Arial,Arial_MSFontService,sans-serif" font-style="normal" font-variant="normal" font-weight="400" font-stretch="normal" font-size="73" text-anchor="start" direction="ltr" writing-mode="lr-tb" unicode-bidi="normal" text-decoration="none" transform="matrix(1 -2.44929e-16 2.44929e-16 1 226.936 493)">CD </text><text fill="#000000" fill-opacity="1" font-family="Arial,Arial_MSFontService,sans-serif" font-style="normal" font-variant="normal" font-weight="400" font-stretch="normal" font-size="73" text-anchor="start" direction="ltr" writing-mode="lr-tb" unicode-bidi="normal" text-decoration="none" transform="matrix(1 -2.44929e-16 2.44929e-16 1 348.921 493)">AuctionSystem</text><path d="M475.938 1265.31 475.938 1714.93 469.063 1714.93 469.063 1265.31ZM453.489 1291.07 472.5 1258.48 491.511 1291.07 491.511 1291.07C492.468 1292.71 491.914 1294.82 490.274 1295.78 488.634 1296.73 486.529 1296.18 485.573 1294.54L485.573 1294.54 469.531 1267.04 475.469 1267.04 459.428 1294.54C458.471 1296.18 456.366 1296.73 454.726 1295.78 453.087 1294.82 452.533 1292.71 453.489 1291.07ZM491.511 1689.16 472.501 1721.75 453.49 1689.16C452.533 1687.52 453.087 1685.41 454.727 1684.46 456.367 1683.5 458.471 1684.06 459.428 1685.7L475.47 1713.2 469.531 1713.2 485.573 1685.7C486.53 1684.06 488.634 1683.5 490.274 1684.46 491.914 1685.41 492.468 1687.52 491.511 1689.16Z" fill="#000000" fill-rule="nonzero" fill-opacity="1"/><text fill="#000000" fill-opacity="1" font-family="Arial,Arial_MSFontService,sans-serif" font-style="normal" font-variant="normal" font-weight="400" font-stretch="normal" font-size="83" text-anchor="start" direction="ltr" writing-mode="lr-tb" unicode-bidi="normal" text-decoration="none" transform="matrix(1 0 0 1 507.7 1518)">participants</text><text fill="#000000" fill-opacity="1" font-family="Arial,Arial_MSFontService,sans-serif" font-style="normal" font-variant="normal" font-weight="400" font-stretch="normal" font-size="83" text-anchor="start" direction="ltr" writing-mode="lr-tb" unicode-bidi="normal" text-decoration="none" transform="matrix(1 0 0 1 505.319 1355)">auction</text><text fill="#000000" fill-opacity="1" font-family="Arial,Arial_MSFontService,sans-serif" font-style="normal" font-variant="normal" font-weight="400" font-stretch="normal" font-size="83" text-anchor="start" direction="ltr" writing-mode="lr-tb" unicode-bidi="normal" text-decoration="none" transform="matrix(1 0 0 1 505.319 1682)">bidder</text><text fill="#000000" fill-opacity="1" font-family="Arial,Arial_MSFontService,sans-serif" font-style="normal" font-variant="normal" font-weight="400" font-stretch="normal" font-size="83" text-anchor="start" direction="ltr" writing-mode="lr-tb" unicode-bidi="normal" text-decoration="none" transform="matrix(1 0 0 1 406.214 1684)">*</text><path d="M2211.56 1452.8 2211.56 1395.75 2215 1399.19 1819.06 1399.19 1819.06 1294.81 2215 1294.81 2211.56 1298.25 2211.56 1241.2 2317.36 1347ZM2310.07 1344.57 2310.07 1349.43 2212.57 1251.93 2218.44 1249.5 2218.44 1301.69 1822.5 1301.69 1825.94 1298.25 1825.94 1395.75 1822.5 1392.31 2218.44 1392.31 2218.44 1444.5 2212.57 1442.07Z" fill="#000000" fill-rule="nonzero" fill-opacity="1"/><text fill="#000000" fill-opacity="1" font-family="Arial,Arial_MSFontService,sans-serif" font-style="normal" font-variant="normal" font-weight="400" font-stretch="normal" font-size="83" text-anchor="start" direction="ltr" writing-mode="lr-tb" unicode-bidi="normal" text-decoration="none" transform="matrix(1 0 0 1 1869.03 1212)">instances</text><rect x="2625.5" y="1721.5" width="780" height="130" stroke="#000000" stroke-width="6.875" stroke-linecap="butt" stroke-linejoin="miter" stroke-miterlimit="8" stroke-opacity="1" fill="#FFFFFF" fill-opacity="1"/><text fill="#000000" fill-opacity="1" font-family="Arial,Arial_MSFontService,sans-serif" font-style="normal" font-variant="normal" font-weight="400" font-stretch="normal" font-size="73" text-anchor="start" direction="ltr" writing-mode="lr-tb" unicode-bidi="normal" text-decoration="underline" transform="matrix(1 0 0 1 2817.58 1813)">theo:Person</text><rect x="2625.5" y="1851.5" width="780" height="220" stroke="#000000" stroke-width="6.875" stroke-linecap="butt" stroke-linejoin="miter" stroke-miterlimit="8" stroke-opacity="1" fill="#FFFFFF" fill-opacity="1"/><text fill="#000000" fill-opacity="1" font-family="Arial,Arial_MSFontService,sans-serif" font-style="normal" font-variant="normal" font-weight="400" font-stretch="normal" font-size="73" text-anchor="start" direction="ltr" writing-mode="lr-tb" unicode-bidi="normal" text-decoration="none" transform="matrix(1 0 0 1 2664.44 1931)">name = “Theo”</text><text fill="#000000" fill-opacity="1" font-family="Arial,Arial_MSFontService,sans-serif" font-style="normal" font-variant="normal" font-weight="400" font-stretch="normal" font-size="73" text-anchor="start" direction="ltr" writing-mode="lr-tb" unicode-bidi="normal" text-decoration="none" transform="matrix(1 0 0 1 2664.44 2027)">number = 124</text><rect x="173.5" y="590.5" width="598" height="130" stroke="#000000" stroke-width="6.875" stroke-linecap="butt" stroke-linejoin="miter" stroke-miterlimit="8" stroke-opacity="1" fill="#FFFFFF" fill-opacity="1"/><text fill="#000000" fill-opacity="1" font-family="Arial,Arial_MSFontService,sans-serif" font-style="normal" font-variant="normal" font-weight="400" font-stretch="normal" font-size="73" text-anchor="start" direction="ltr" writing-mode="lr-tb" unicode-bidi="normal" text-decoration="none" transform="matrix(1 0 0 1 227.514 682)">AuctionSystem</text><path d="M450.5 756 472 723.5 493.5 756 472 788.5Z" stroke="#000000" stroke-width="4.58333" stroke-linecap="butt" stroke-linejoin="miter" stroke-miterlimit="8" stroke-opacity="1" fill="#000000" fill-rule="evenodd" fill-opacity="1"/><path d="M475.938 788.5 475.938 901.348 469.063 901.348 469.063 788.5ZM491.511 875.58 472.501 908.17 453.49 875.58C452.533 873.94 453.087 871.835 454.727 870.878 456.367 869.922 458.471 870.476 459.428 872.116L475.47 899.616 469.531 899.616 485.573 872.116C486.529 870.476 488.634 869.922 490.274 870.878 491.914 871.835 492.468 873.94 491.511 875.58Z" fill="#000000" fill-rule="nonzero" fill-opacity="1"/><text fill="#000000" fill-opacity="1" font-family="Arial,Arial_MSFontService,sans-serif" font-style="normal" font-variant="normal" font-weight="400" font-stretch="normal" font-size="83" text-anchor="start" direction="ltr" writing-mode="lr-tb" unicode-bidi="normal" text-decoration="none" transform="matrix(1 0 0 1 393.403 901)">*</text><rect x="1011.5" y="1720.5" width="598" height="130" stroke="#000000" stroke-width="6.875" stroke-linecap="butt" stroke-linejoin="miter" stroke-miterlimit="8" stroke-opacity="1" fill="#FFFFFF" fill-opacity="1"/><text fill="#000000" fill-opacity="1" font-family="Arial,Arial_MSFontService,sans-serif" font-style="normal" font-variant="normal" font-weight="400" font-stretch="normal" font-size="73" text-anchor="start" direction="ltr" writing-mode="lr-tb" unicode-bidi="normal" text-decoration="none" transform="matrix(1 0 0 1 1206.08 1812)">Status</text><rect x="1011.5" y="1850.5" width="598" height="155" stroke="#000000" stroke-width="6.875" stroke-linecap="butt" stroke-linejoin="miter" stroke-miterlimit="8" stroke-opacity="1" fill="#FFFFFF" fill-opacity="1"/><text fill="#000000" fill-opacity="1" font-family="Arial,Arial_MSFontService,sans-serif" font-style="normal" font-variant="normal" font-weight="400" font-stretch="normal" font-size="73" text-anchor="start" direction="ltr" writing-mode="lr-tb" unicode-bidi="normal" text-decoration="none" transform="matrix(1 0 0 1 1050.22 1961)">ACTIVE, DONE</text><path d="M771.5 1145.06 1314.32 1145.06 1314.32 1714.65 1307.44 1714.65 1307.44 1148.5 1310.88 1151.94 771.5 1151.94ZM1329.89 1688.88 1310.88 1721.47 1291.87 1688.88C1290.91 1687.24 1291.46 1685.14 1293.1 1684.18 1294.74 1683.22 1296.85 1683.78 1297.81 1685.42L1313.85 1712.92 1307.91 1712.92 1323.95 1685.42C1324.91 1683.78 1327.01 1683.22 1328.65 1684.18 1330.29 1685.14 1330.85 1687.24 1329.89 1688.88Z" fill="#000000" fill-rule="nonzero" fill-opacity="1"/><text fill="#000000" fill-opacity="1" font-family="Arial,Arial_MSFontService,sans-serif" font-style="normal" font-variant="normal" font-weight="400" font-stretch="normal" font-size="83" text-anchor="start" direction="ltr" writing-mode="lr-tb" unicode-bidi="normal" text-decoration="none" transform="matrix(1 0 0 1 1341.92 1682)">status</text><text fill="#000000" fill-opacity="1" font-family="Arial,Arial_MSFontService,sans-serif" font-style="normal" font-variant="normal" font-weight="400" font-stretch="normal" font-size="83" text-anchor="start" direction="ltr" writing-mode="lr-tb" unicode-bidi="normal" text-decoration="none" transform="matrix(1 0 0 1 1228.9 1684)">1</text><rect x="2625.5" y="907.5" width="780" height="130" stroke="#000000" stroke-width="6.875" stroke-linecap="butt" stroke-linejoin="miter" stroke-miterlimit="8" stroke-opacity="1" fill="#FFFFFF" fill-opacity="1"/><text fill="#000000" fill-opacity="1" font-family="Arial,Arial_MSFontService,sans-serif" font-style="normal" font-variant="normal" font-weight="400" font-stretch="normal" font-size="73" text-anchor="start" direction="ltr" writing-mode="lr-tb" unicode-bidi="normal" text-decoration="underline" transform="matrix(1 0 0 1 2770.88 999)">coppe</text><text fill="#000000" fill-opacity="1" font-family="Arial,Arial_MSFontService,sans-serif" font-style="normal" font-variant="normal" font-weight="400" font-stretch="normal" font-size="73" text-anchor="start" direction="ltr" writing-mode="lr-tb" unicode-bidi="normal" text-decoration="underline" transform="matrix(1 0 0 1 2970.26 999)">r:</text><text fill="#000000" fill-opacity="1" font-family="Arial,Arial_MSFontService,sans-serif" font-style="normal" font-variant="normal" font-weight="400" font-stretch="normal" font-size="73" text-anchor="start" direction="ltr" writing-mode="lr-tb" unicode-bidi="normal" text-decoration="underline" transform="matrix(1 0 0 1 3015.52 999)">Auction</text><rect x="2625.5" y="1038.5" width="780" height="220" stroke="#000000" stroke-width="6.875" stroke-linecap="butt" stroke-linejoin="miter" stroke-miterlimit="8" stroke-opacity="1" fill="#FFFFFF" fill-opacity="1"/><text fill="#000000" fill-opacity="1" font-family="Arial,Arial_MSFontService,sans-serif" font-style="normal" font-variant="normal" font-weight="400" font-stretch="normal" font-size="73" text-anchor="start" direction="ltr" writing-mode="lr-tb" unicode-bidi="normal" text-decoration="none" transform="matrix(1 0 0 1 2664.44 1118)">String title = “Copper”</text><text fill="#000000" fill-opacity="1" font-family="Arial,Arial_MSFontService,sans-serif" font-style="normal" font-variant="normal" font-weight="400" font-stretch="normal" font-size="73" text-anchor="start" direction="ltr" writing-mode="lr-tb" unicode-bidi="normal" text-decoration="none" transform="matrix(1 0 0 1 2664.44 1214)">status </text><text fill="#000000" fill-opacity="1" font-family="Arial,Arial_MSFontService,sans-serif" font-style="normal" font-variant="normal" font-weight="400" font-stretch="normal" font-size="73" text-anchor="start" direction="ltr" writing-mode="lr-tb" unicode-bidi="normal" text-decoration="none" transform="matrix(1 0 0 1 2881.01 1214)">= ACTIVE</text><rect x="3050.5" y="590.5" width="780" height="130" stroke="#000000" stroke-width="6.875" stroke-linecap="butt" stroke-linejoin="miter" stroke-miterlimit="8" stroke-opacity="1" fill="#FFFFFF" fill-opacity="1"/><text fill="#000000" fill-opacity="1" font-family="Arial,Arial_MSFontService,sans-serif" font-style="normal" font-variant="normal" font-weight="400" font-stretch="normal" font-size="73" text-anchor="start" direction="ltr" writing-mode="lr-tb" unicode-bidi="normal" text-decoration="underline" transform="matrix(1 0 0 1 3130.35 682)">sys:AuctionSystem</text><path d="M3418.5 756 3440.5 723.5 3462.5 756 3440.5 788.5Z" stroke="#000000" stroke-width="4.58333" stroke-linecap="butt" stroke-linejoin="miter" stroke-miterlimit="8" stroke-opacity="1" fill="#000000" fill-rule="evenodd" fill-opacity="1"/><text fill="#000000" fill-opacity="1" font-family="Arial,Arial_MSFontService,sans-serif" font-style="normal" font-variant="normal" font-weight="400" font-stretch="normal" font-size="83" text-anchor="start" direction="ltr" writing-mode="lr-tb" unicode-bidi="normal" text-decoration="none" transform="matrix(1 0 0 1 3048 1517)">participants</text><text fill="#000000" fill-opacity="1" font-family="Arial,Arial_MSFontService,sans-serif" font-style="normal" font-variant="normal" font-weight="400" font-stretch="normal" font-size="83" text-anchor="start" direction="ltr" writing-mode="lr-tb" unicode-bidi="normal" text-decoration="none" transform="matrix(1 0 0 1 3048.23 1354)">auction</text><text fill="#000000" fill-opacity="1" font-family="Arial,Arial_MSFontService,sans-serif" font-style="normal" font-variant="normal" font-weight="400" font-stretch="normal" font-size="83" text-anchor="start" direction="ltr" writing-mode="lr-tb" unicode-bidi="normal" text-decoration="none" transform="matrix(1 0 0 1 3051.09 1679)">bidder</text><path d="M0 0 779 0 779 91.6283 740.628 130 0 130Z" fill="#FFFFFF" fill-rule="evenodd" fill-opacity="1" transform="matrix(1 0 0 -1 3503.5 530.5)"/><path d="M740.628 130 748.303 99.3024 779 91.6283Z" fill="#CDCDCD" fill-rule="evenodd" fill-opacity="1" transform="matrix(1 0 0 -1 3503.5 530.5)"/><path d="M740.628 130 748.303 99.3024 779 91.6283 740.628 130 0 130 0 0 779 0 779 91.6283" stroke="#000000" stroke-width="6.875" stroke-linecap="butt" stroke-linejoin="round" stroke-miterlimit="10" stroke-opacity="1" fill="none" fill-rule="evenodd" transform="matrix(1 0 0 -1 3503.5 530.5)"/><text fill="#000000" fill-opacity="1" font-family="Arial,Arial_MSFontService,sans-serif" font-style="normal" font-variant="normal" font-weight="400" font-stretch="normal" font-size="73" text-anchor="start" direction="ltr" writing-mode="lr-tb" unicode-bidi="normal" text-decoration="none" transform="matrix(1 -2.44929e-16 2.44929e-16 1 3550.32 495)">OD </text><text fill="#000000" fill-opacity="1" font-family="Arial,Arial_MSFontService,sans-serif" font-style="normal" font-variant="normal" font-weight="400" font-stretch="normal" font-size="73" text-anchor="start" direction="ltr" writing-mode="lr-tb" unicode-bidi="normal" text-decoration="none" transform="matrix(1 -2.44929e-16 2.44929e-16 1 3676.88 495)">AuctionInstances</text><rect x="3474.5" y="907.5" width="780" height="130" stroke="#000000" stroke-width="6.875" stroke-linecap="butt" stroke-linejoin="miter" stroke-miterlimit="8" stroke-opacity="1" fill="#FFFFFF" fill-opacity="1"/><text fill="#000000" fill-opacity="1" font-family="Arial,Arial_MSFontService,sans-serif" font-style="normal" font-variant="normal" font-weight="400" font-stretch="normal" font-size="73" text-anchor="start" direction="ltr" writing-mode="lr-tb" unicode-bidi="normal" text-decoration="underline" transform="matrix(1 0 0 1 3662.65 999)">gold:</text><text fill="#000000" fill-opacity="1" font-family="Arial,Arial_MSFontService,sans-serif" font-style="normal" font-variant="normal" font-weight="400" font-stretch="normal" font-size="73" text-anchor="start" direction="ltr" writing-mode="lr-tb" unicode-bidi="normal" text-decoration="underline" transform="matrix(1 0 0 1 3821.34 999)">Auction</text><rect x="3474.5" y="1038.5" width="780" height="220" stroke="#000000" stroke-width="6.875" stroke-linecap="butt" stroke-linejoin="miter" stroke-miterlimit="8" stroke-opacity="1" fill="#FFFFFF" fill-opacity="1"/><text fill="#000000" fill-opacity="1" font-family="Arial,Arial_MSFontService,sans-serif" font-style="normal" font-variant="normal" font-weight="400" font-stretch="normal" font-size="73" text-anchor="start" direction="ltr" writing-mode="lr-tb" unicode-bidi="normal" text-decoration="none" transform="matrix(1 0 0 1 3513.24 1118)">String title = </text><text fill="#000000" fill-opacity="1" font-family="Arial,Arial_MSFontService,sans-serif" font-style="normal" font-variant="normal" font-weight="400" font-stretch="normal" font-size="73" text-anchor="start" direction="ltr" writing-mode="lr-tb" unicode-bidi="normal" text-decoration="none" transform="matrix(1 0 0 1 3923.45 1118)">“Gold”</text><text fill="#000000" fill-opacity="1" font-family="Arial,Arial_MSFontService,sans-serif" font-style="normal" font-variant="normal" font-weight="400" font-stretch="normal" font-size="73" text-anchor="start" direction="ltr" writing-mode="lr-tb" unicode-bidi="normal" text-decoration="none" transform="matrix(1 0 0 1 3513.24 1214)">status </text><text fill="#000000" fill-opacity="1" font-family="Arial,Arial_MSFontService,sans-serif" font-style="normal" font-variant="normal" font-weight="400" font-stretch="normal" font-size="73" text-anchor="start" direction="ltr" writing-mode="lr-tb" unicode-bidi="normal" text-decoration="none" transform="matrix(1 0 0 1 3729.8 1214)">= </text><text fill="#000000" fill-opacity="1" font-family="Arial,Arial_MSFontService,sans-serif" font-style="normal" font-variant="normal" font-weight="400" font-stretch="normal" font-size="73" text-anchor="start" direction="ltr" writing-mode="lr-tb" unicode-bidi="normal" text-decoration="none" transform="matrix(1 0 0 1 3793.39 1214)">DONE</text><path d="M3018.94 1265.31 3018.94 1714.93 3012.06 1714.93 3012.06 1265.31ZM2996.49 1291.07 3015.5 1258.48 3034.51 1291.07C3035.47 1292.71 3034.91 1294.82 3033.27 1295.78 3031.63 1296.73 3029.53 1296.18 3028.57 1294.54L3012.53 1267.04 3018.47 1267.04 3002.43 1294.54C3001.47 1296.18 2999.37 1296.73 2997.73 1295.78 2996.09 1294.82 2995.53 1292.71 2996.49 1291.07ZM3034.51 1689.16 3015.5 1721.75 2996.49 1689.16C2995.53 1687.52 2996.09 1685.41 2997.73 1684.46 2999.37 1683.5 3001.47 1684.06 3002.43 1685.7L3018.47 1713.2 3012.53 1713.2 3028.57 1685.7C3029.53 1684.06 3031.64 1683.5 3033.27 1684.46 3034.91 1685.41 3035.47 1687.52 3034.51 1689.16Z" fill="#000000" fill-rule="nonzero" fill-opacity="1"/><path d="M3443.72 788.5 3443.72 851.609 3015.5 851.609 3018.94 848.171 3018.94 901.036 3012.06 901.036 3012.06 844.734 3440.28 844.734 3436.85 848.171 3436.85 788.5ZM3034.51 875.268 3015.5 907.858 2996.49 875.268C2995.53 873.628 2996.09 871.523 2997.73 870.567 2999.37 869.61 3001.47 870.164 3002.43 871.804L3018.47 899.304 3012.53 899.304 3028.57 871.804C3029.53 870.164 3031.63 869.61 3033.27 870.567 3034.91 871.523 3035.47 873.628 3034.51 875.268Z" fill="#000000" fill-rule="nonzero" fill-opacity="1"/><path d="M0-3.4375 63.1088-3.4375 63.1088 424.01 59.6713 420.572 112.536 420.572 112.536 427.447 56.2338 427.447 56.2338 0 59.6713 3.4375 0 3.4375ZM86.7679 404.999 119.358 424.01 86.7679 443.021C85.128 443.977 83.0232 443.424 82.0666 441.784 81.11 440.144 81.6639 438.039 83.3037 437.082L110.804 421.041 110.804 426.979 83.3037 410.938C81.6639 409.981 81.11 407.876 82.0666 406.236 83.0232 404.596 85.128 404.042 86.7679 404.999Z" fill="#000000" fill-rule="nonzero" fill-opacity="1" transform="matrix(1.83697e-16 1 1 -1.83697e-16 3440.5 788.5)"/></g></g></svg>